<svg width="159" height="162" viewBox="0 0 159 162" fill="none" xmlns="http://www.w3.org/2000/svg">
<g clip-path="url(#clip0_1037_6)">
<path d="M78.6405 0.669275C72.1282 0.699534 65.9091 1.25494 60.437 2.22324C44.3166 5.07117 41.3898 11.0321 41.3898 22.0252V36.5436H79.4841V41.3831H41.3898H27.0934C16.0221 41.3831 6.32777 48.0376 3.29552 60.6966C-0.202155 75.2069 -0.357296 84.2615 3.29552 99.4125C6.00339 110.69 12.4702 118.726 23.5414 118.726H36.6391V101.322C36.6391 88.748 47.5181 77.657 60.437 77.657H98.4869C109.079 77.657 117.534 68.9361 117.534 58.2991V22.0252C117.534 11.7014 108.825 3.94623 98.4869 2.22324C91.9428 1.1339 85.1528 0.639015 78.6405 0.669275ZM58.0394 12.3462C61.9743 12.3462 65.1876 15.612 65.1876 19.6276C65.1876 23.629 61.9743 26.8647 58.0394 26.8647C54.0904 26.8647 50.8912 23.629 50.8912 19.6276C50.8912 15.612 54.0904 12.3462 58.0394 12.3462Z" fill="url(#paint0_linear_1037_6)"/>
<path d="M122.285 41.3828V58.2988C122.285 71.4136 111.166 82.4518 98.4867 82.4518H60.4368C50.0143 82.4518 41.3896 91.3721 41.3896 101.81V138.084C41.3896 148.407 50.3669 154.48 60.4368 157.442C72.4953 160.987 84.0588 161.628 98.4867 157.442C108.077 154.665 117.534 149.077 117.534 138.084V123.565H79.4839V118.726H117.534H136.581C147.652 118.726 151.778 111.003 155.628 99.4122C159.605 87.4794 159.436 76.004 155.628 60.6964C152.892 49.6748 147.666 41.3828 136.581 41.3828H122.285ZM100.884 133.244C104.833 133.244 108.032 136.48 108.032 140.481C108.032 144.497 104.833 147.763 100.884 147.763C96.9494 147.763 93.736 144.497 93.736 140.481C93.736 136.48 96.9493 133.244 100.884 133.244Z" fill="url(#paint1_linear_1037_6)"/>
</g>
<defs>
<linearGradient id="paint0_linear_1037_6" x1="0.613769" y1="0.667968" x2="88.455" y2="75.5209" gradientUnits="userSpaceOnUse">
<stop stop-color="#5A9FD4"/>
<stop offset="1" stop-color="#306998"/>
</linearGradient>
<linearGradient id="paint1_linear_1037_6" x1="99.9688" y1="139.261" x2="68.4547" y2="95.1" gradientUnits="userSpaceOnUse">
<stop stop-color="#FFD43B"/>
<stop offset="1" stop-color="#FFE873"/>
</linearGradient>
<clipPath id="clip0_1037_6">
<rect width="157.934" height="161.332" fill="white" transform="translate(0.61377 0.667969)"/>
</clipPath>
</defs>
</svg>
